<svg width="1088" height="688" viewBox="0 0 1088 688" fill="none" xmlns="http://www.w3.org/2000/svg">
<g clip-path="url(#clip0_9226_317735)">
<path d="M961.81 454.442C956.54 499.592 945.59 535.842 930.56 564.752C910.56 603.272 876.35 618.792 845.79 635.032C836.959 639.716 827.778 643.708 818.33 646.972C762.72 666.272 700.48 661.152 651.59 650.962C617.299 643.809 582.492 639.408 547.5 637.802C537.52 637.352 527.53 637.129 517.53 637.132C502.11 637.152 224.46 642.422 156.86 505.562C140.17 471.802 128.73 430.562 124.62 380.292C112.99 238.172 176.91 144.832 259.36 83.822C415.33 -31.588 629.12 -26.748 782.79 91.702C885.15 170.602 980.99 290.012 961.81 454.442Z" fill="#3F3D56"/>
<path d="M930.559 564.752C910.559 603.272 883.349 628.792 852.789 645.032C843.959 649.716 834.778 653.708 825.329 656.972C769.719 676.272 707.479 671.152 658.589 660.962C624.299 653.809 589.491 649.408 554.499 647.802C544.519 647.352 534.529 647.129 524.529 647.132C509.109 647.152 493.693 647.725 478.279 648.852C378.109 656.212 224.459 642.422 156.859 505.562L325.999 177.962L388.949 339.581L409.039 391.171L464.409 315.191L492.999 275.962L623.199 425.232L659.999 343.962L914.779 551.881L928.989 563.471L930.559 564.752Z" fill="#F2F2F2"/>
<path opacity="0.1" d="M302 282.962L328 225.962L364 308.962L333 248.962L302 282.962Z" fill="black"/>
<path opacity="0.1" d="M554.499 647.802C544.519 647.352 534.529 647.129 524.529 647.132L409.039 391.172L554.499 647.802Z" fill="black"/>
<path opacity="0.1" d="M464.414 315.191L493.003 292.962L623.003 442.962L491.003 314.962L464.414 315.191Z" fill="black"/>
<path opacity="0.1" d="M852.793 645.032C843.962 649.716 834.781 653.708 825.333 656.972L623.203 425.232L852.793 645.032Z" fill="black"/>
<path d="M482 104.962C483.657 104.962 485 103.619 485 101.962C485 100.305 483.657 98.962 482 98.962C480.343 98.962 479 100.305 479 101.962C479 103.619 480.343 104.962 482 104.962Z" fill="#F2F2F2"/>
<path d="M399 207.962C400.657 207.962 402 206.619 402 204.962C402 203.305 400.657 201.962 399 201.962C397.343 201.962 396 203.305 396 204.962C396 206.619 397.343 207.962 399 207.962Z" fill="#F2F2F2"/>
<path d="M602 224.962C603.105 224.962 604 224.067 604 222.962C604 221.857 603.105 220.962 602 220.962C600.895 220.962 600 221.857 600 222.962C600 224.067 600.895 224.962 602 224.962Z" fill="#F2F2F2"/>
<path d="M182 269.962C183.105 269.962 184 269.067 184 267.962C184 266.857 183.105 265.962 182 265.962C180.895 265.962 180 266.857 180 267.962C180 269.067 180.895 269.962 182 269.962Z" fill="#F2F2F2"/>
<path d="M614 100.962C615.105 100.962 616 100.067 616 98.962C616 97.8574 615.105 96.962 614 96.962C612.895 96.962 612 97.8574 612 98.962C612 100.067 612.895 100.962 614 100.962Z" fill="#F2F2F2"/>
<path d="M738 196.962C739.105 196.962 740 196.067 740 194.962C740 193.857 739.105 192.962 738 192.962C736.895 192.962 736 193.857 736 194.962C736 196.067 736.895 196.962 738 196.962Z" fill="#F2F2F2"/>
<path d="M860 348.962C861.105 348.962 862 348.067 862 346.962C862 345.857 861.105 344.962 860 344.962C858.895 344.962 858 345.857 858 346.962C858 348.067 858.895 348.962 860 348.962Z" fill="#F2F2F2"/>
<path d="M306 121.222H303.24V118.462H301.76V121.222H299V122.7H301.76V125.459H303.24V122.7H306V121.222Z" fill="#F2F2F2"/>
<path d="M848 424.222H845.24V421.462H843.76V424.222H841V425.7H843.76V428.459H845.24V425.7H848V424.222Z" fill="#F2F2F2"/>
<path d="M1088 613.962C1088 630.531 844.443 687.962 544 687.962C243.557 687.962 0 630.531 0 613.962C0 597.393 243.557 627.962 544 627.962C844.443 627.962 1088 597.394 1088 613.962Z" fill="#3F3D56"/>
<path opacity="0.1" d="M1088 613.962C1088 630.531 844.443 687.962 544 687.962C243.557 687.962 0 630.531 0 613.962C0 597.393 243.557 627.962 544 627.962C844.443 627.962 1088 597.394 1088 613.962Z" fill="black"/>
<path d="M544 643.962C844.443 643.962 1088 630.531 1088 613.962C1088 597.393 844.443 583.962 544 583.962C243.557 583.962 0 597.393 0 613.962C0 630.531 243.557 643.962 544 643.962Z" fill="#3F3D56"/>
<path d="M568 571.962C568 605.099 553.225 595.962 535 595.962C516.775 595.962 502 605.099 502 571.962C502 538.825 535 475.962 535 475.962C535 475.962 568 538.825 568 571.962Z" fill="#FF6584"/>
<path opacity="0.1" d="M550 584.641C550 599.703 543.284 595.55 535 595.55C526.716 595.55 520 599.703 520 584.641C520 569.579 535 541.005 535 541.005C535 541.005 550 569.581 550 584.641Z" fill="black"/>
<path d="M572 604.962H498C493.029 604.962 489 608.991 489 613.962C489 618.933 493.029 622.962 498 622.962H572C576.971 622.962 581 618.933 581 613.962C581 608.991 576.971 604.962 572 604.962Z" fill="#2F2E41"/>
<path d="M572 586.962H498C493.029 586.962 489 590.991 489 595.962C489 600.933 493.029 604.962 498 604.962H572C576.971 604.962 581 600.933 581 595.962C581 590.991 576.971 586.962 572 586.962Z" fill="#2F2E41"/>
<path d="M137 490.528C137 545.871 171.719 590.654 214.626 590.654Z" fill="#3F3D56"/>
<path d="M214.625 590.654C214.625 534.689 253.37 489.403 301.251 489.403Z" fill="#6C63FF"/>
<path d="M165.125 495.545C165.125 548.115 187.265 590.654 214.625 590.654Z" fill="#6C63FF"/>
<path d="M214.625 590.654C214.625 519.143 259.408 461.277 314.751 461.277Z" fill="#3F3D56"/>
<path d="M198.297 591.36C198.297 591.36 209.306 591.021 212.623 588.66C215.94 586.299 229.557 583.477 230.38 587.265C231.203 591.053 246.924 606.109 234.495 606.21C222.066 606.311 205.616 604.274 202.305 602.257C198.994 600.24 198.297 591.36 198.297 591.36Z" fill="#A8A8A8"/>
<path opacity="0.2" d="M234.718 604.89C222.289 604.99 205.839 602.954 202.528 600.937C200.006 599.401 199.001 593.889 198.665 591.346L198.297 591.36C198.297 591.36 198.997 600.239 202.306 602.26C205.615 604.281 222.067 606.313 234.496 606.213C238.084 606.184 239.323 604.908 239.255 603.013C238.757 604.155 237.388 604.868 234.718 604.89Z" fill="black"/>
<path d="M721.43 527.062C721.43 565.091 745.287 595.862 774.771 595.862Z" fill="#3F3D56"/>
<path d="M774.766 595.863C774.766 557.407 801.389 526.288 834.291 526.288Z" fill="#6C63FF"/>
<path d="M740.758 530.509C740.758 566.633 755.971 595.863 774.772 595.863Z" fill="#6C63FF"/>
<path d="M774.766 595.863C774.766 546.724 805.539 506.963 843.566 506.963Z" fill="#3F3D56"/>
<path d="M763.547 596.348C763.547 596.348 771.112 596.115 773.391 594.492C775.67 592.869 785.027 590.93 785.591 593.534C786.155 596.138 796.959 606.483 788.419 606.552C779.879 606.621 768.575 605.222 766.3 603.836C764.025 602.45 763.547 596.348 763.547 596.348Z" fill="#A8A8A8"/>
<path opacity="0.2" d="M788.573 605.645C780.033 605.714 768.729 604.315 766.454 602.929C764.721 601.873 764.031 598.086 763.8 596.339L763.547 596.349C763.547 596.349 764.026 602.449 766.302 603.836C768.578 605.223 779.881 606.621 788.421 606.552C790.886 606.532 791.738 605.652 791.691 604.352C791.348 605.14 790.408 605.63 788.573 605.645Z" fill="black"/>
<path d="M893.812 618.699C893.812 618.699 905.172 616.97 908.312 614.108C911.453 611.246 925.203 606.62 926.53 610.441C927.857 614.262 946.024 627.888 933.163 629.548C920.302 631.208 903.01 631.157 899.328 629.483C895.646 627.809 893.812 618.699 893.812 618.699Z" fill="#A8A8A8"/>
<path opacity="0.2" d="M933.227 628.154C920.367 629.813 903.073 629.763 899.391 628.089C896.591 626.814 894.856 621.231 894.191 618.639L893.812 618.7C893.812 618.7 895.645 627.809 899.328 629.483C903.011 631.157 920.303 631.208 933.163 629.548C936.875 629.069 937.999 627.592 937.692 625.642C937.317 626.888 935.99 627.798 933.227 628.154Z" fill="black"/>
<path d="M614.258 617.881C614.258 617.881 623.845 616.422 626.495 614.006C629.145 611.59 640.75 607.686 641.869 610.911C642.988 614.136 658.321 625.636 647.469 627.036C636.617 628.436 622.021 628.394 618.914 626.981C615.807 625.568 614.258 617.881 614.258 617.881Z" fill="#A8A8A8"/>
<path opacity="0.2" d="M647.523 625.856C636.67 627.256 622.075 627.214 618.968 625.801C616.601 624.725 615.141 620.013 614.578 617.825L614.258 617.876C614.258 617.876 615.805 625.563 618.913 626.976C622.021 628.389 636.613 628.432 647.468 627.031C650.601 626.631 651.549 625.38 651.29 623.731C650.976 624.788 649.855 625.556 647.523 625.856Z" fill="black"/>
<path d="M122.391 613.09C122.391 613.09 129.854 611.954 131.918 610.074C133.982 608.194 143.018 605.154 143.887 607.665C144.756 610.176 156.695 619.128 148.245 620.218C139.795 621.308 128.434 621.275 126.015 620.175C123.596 619.075 122.391 613.09 122.391 613.09Z" fill="#A8A8A8"/>
<path opacity="0.2" d="M148.287 619.302C139.838 620.392 128.476 620.359 126.057 619.259C124.215 618.421 123.078 614.753 122.64 613.05L122.391 613.09C122.391 613.09 123.591 619.074 126.015 620.175C128.439 621.276 139.796 621.308 148.245 620.218C150.684 619.903 151.422 618.933 151.221 617.652C150.975 618.47 150.102 619.068 148.287 619.302Z" fill="black"/>
<path opacity="0.1" d="M383.704 601.318C383.704 631.538 341.58 622.191 290.004 622.191C238.428 622.191 196.93 631.538 196.93 601.318C196.93 571.098 239.048 564.525 290.624 564.525C342.2 564.525 383.704 571.098 383.704 601.318Z" fill="black"/>
<path d="M383.704 593.881C383.704 624.101 341.58 614.754 290.004 614.754C238.428 614.754 196.93 624.101 196.93 593.881C196.93 563.661 239.044 557.081 290.62 557.081C342.196 557.081 383.704 563.657 383.704 593.881Z" fill="#3F3D56"/>
<rect x="275" y="437" width="182" height="182" rx="15.1667" fill="#020303"/>
<path d="M387.81 482.552C387.81 479.714 387.191 477.743 385.953 476.723C384.714 475.703 382.617 475.165 379.66 475.165H378.342V471.125L381.099 471.356L392.964 471.702L405.309 471.356L407.706 471.125V475.165H406.387C403.271 475.165 401.114 475.675 399.915 476.675C398.717 477.675 398.118 479.637 398.118 482.571V573.554C398.118 576.33 398.737 578.238 399.975 579.277C401.214 580.316 403.351 580.835 406.387 580.835H407.706V584.875L393.204 584.298L383.136 584.644L378.342 584.875V580.835H379.621C382.657 580.835 384.774 580.335 385.973 579.335C387.171 578.334 387.77 576.411 387.77 573.563V530.049H344.304V573.544C344.304 576.404 344.943 578.328 346.222 579.315C347.5 580.303 349.618 580.803 352.574 580.816H353.892V584.856L338.432 584.279C336.354 584.279 333.637 584.384 330.282 584.567C326.926 584.75 324.928 584.856 324.289 584.856V580.816H325.687C327.692 580.881 329.69 580.554 331.56 579.854C333.158 579.213 333.957 577.113 333.957 573.554V482.571C333.957 479.711 333.338 477.765 332.099 476.733C330.861 475.694 328.724 475.165 325.687 475.165H324.289V471.125L339.151 471.702L353.892 471.125V475.165H352.574C349.578 475.165 347.4 475.675 346.162 476.665C344.924 477.656 344.304 479.637 344.304 482.552V525.086H387.81V482.552Z" fill="#FBFBFB"/>
</g>
<defs>
<clipPath id="clip0_9226_317735">
<rect width="1088" height="687.962" fill="white"/>
</clipPath>
</defs>
</svg>
