<svg width="1042" height="555" viewBox="0 0 1042 555" fill="none" xmlns="http://www.w3.org/2000/svg">
<g clip-path="url(#clip0_9226_317894)">
<path d="M961.469 438.175C960.309 440.675 959.153 443.142 957.999 445.575C956.199 449.355 954.423 453.062 952.669 456.695C951.889 458.305 951.109 459.885 950.349 461.465C941.749 479.035 933.719 494.575 926.899 507.355C920.711 518.935 911.522 528.637 900.296 535.446C889.069 542.255 876.218 545.919 863.089 546.055L711.439 547.705H709.839L696.839 547.845L685.719 547.965L651.619 548.335H650.239L632.879 548.525H632.349L525.349 549.685L429.839 550.685L418.729 550.805L349.729 551.555H349.649L304.899 552.035H304.419L162.919 553.565L120.589 554.025C116.985 554.066 113.381 553.886 109.799 553.485C108.579 553.345 107.359 553.185 106.149 552.995C86.4072 549.948 68.3054 540.228 54.8593 525.455C36.6493 505.425 23.3992 482.055 14.4992 456.695C13.2126 453.035 12.0126 449.328 10.8992 445.575C-19.9108 341.425 17.6493 207.055 85.2493 117.135C88.0826 113.375 90.9626 109.708 93.8893 106.135L93.9592 106.055C114.749 80.535 138.059 59.215 162.889 44.055C206.889 17.145 255.639 9.56497 303.589 32.155C344.159 51.275 382.039 60.265 418.759 62.705C422.469 62.945 426.179 63.125 429.869 63.235C514.099 65.885 593.039 35.535 685.739 15.945C689.429 15.165 693.129 14.395 696.859 13.665C762.989 0.504967 836.349 -6.43503 923.589 8.15497C932.653 9.63563 941.596 11.7746 950.349 14.555C954.196 15.795 957.903 17.1283 961.469 18.555C1003.11 35.495 1025.82 66.795 1035.47 106.015C1036.38 109.655 1037.17 113.358 1037.84 117.125C1054.95 211.465 1004.84 345.285 961.469 438.175Z" fill="#F2F2F2"/>
<path opacity="0.1" d="M497.011 445.575C496.608 449.315 495.983 453.028 495.141 456.695H588.841V445.575H497.011ZM418.761 508.385L429.871 508.295V480.825C426.061 480.655 422.351 480.485 418.761 480.305V508.385ZM185.841 445.575V456.695H384.341V445.575H185.841ZM1035.52 106.055H961.521V18.5649C957.954 17.1183 954.247 15.7849 950.401 14.5649V106.055H696.861V13.6349C693.131 14.3649 689.431 15.1349 685.741 15.9149V106.055H429.871V63.2049C426.181 63.0949 422.471 62.9149 418.761 62.6749V106.055H162.891V44.0549C138.061 59.2149 114.751 80.5349 93.9606 106.055H93.8906V106.135C90.9573 109.735 88.0773 113.402 85.2506 117.135H93.8906V445.575H10.8906C11.9973 449.328 13.1973 453.035 14.4906 456.695H93.8806V550.315C97.875 551.537 101.952 552.469 106.081 553.105C107.291 553.295 108.511 553.455 109.731 553.595C113.313 553.996 116.916 554.176 120.521 554.135L162.851 553.675V456.675H418.761V550.885L429.871 550.765V456.695H685.741V548.055L696.861 547.935V456.695H950.351V461.465C951.111 459.885 951.891 458.305 952.671 456.695C954.424 453.062 956.201 449.355 958.001 445.575C959.154 443.148 960.311 440.682 961.471 438.175V117.175H1037.89C1037.22 113.382 1036.43 109.675 1035.52 106.055ZM162.891 445.575V117.135H418.761V445.575H162.891ZM429.891 445.575V117.135H685.741V445.575H429.891ZM950.371 445.575H696.861V117.135H950.351L950.371 445.575Z" fill="black"/>
<path d="M863.078 533.615V546.615L711.158 548.015L709.538 548.045L651.798 548.575L650.418 548.595L632.868 548.745H632.348L525.368 549.735L349.758 551.365H349.608L304.958 551.785L304.478 551.795L106.078 553.615V538.615L152.728 510.615L246.328 509.835L248.328 509.825L248.988 509.815L250.988 509.785L295.928 509.415L297.938 509.405L298.578 509.395L300.578 509.385L314.988 509.265L315.368 509.255L350.918 508.955H351.208L628.608 506.615L635.398 506.565H636.078L641.258 506.515L678.908 506.205L680.908 506.175L682.758 506.155H683.718L695.428 506.065L697.748 506.035L700.858 506.015L710.608 505.925L726.078 505.795L728.078 505.775L731.558 505.755H732.208L806.918 505.115L863.078 533.615Z" fill="#65617D"/>
<path opacity="0.2" d="M863.078 533.615V546.615L711.158 548.015L709.538 548.045L651.798 548.575L650.418 548.595L632.868 548.745H632.348L525.368 549.735L349.758 551.365H349.608L304.958 551.785L304.478 551.795L106.078 553.615V538.615L152.728 510.615L246.328 509.835L248.328 509.825L248.988 509.815L250.988 509.785L295.928 509.415L297.938 509.405L298.578 509.395L300.578 509.385L314.988 509.265L315.368 509.255L350.918 508.955H351.208L628.608 506.615L635.398 506.565H636.078L641.258 506.515L678.908 506.205L680.908 506.175L682.758 506.155H683.718L695.428 506.065L697.748 506.035L700.858 506.015L710.608 505.925L726.078 505.795L728.078 505.775L731.558 505.755H732.208L806.918 505.115L863.078 533.615Z" fill="black"/>
<path d="M296.092 483.625V508.115C296.092 509.275 295.764 510.411 295.144 511.392C294.525 512.373 293.64 513.157 292.592 513.655C291.812 514.033 290.959 514.238 290.092 514.255L255.192 514.995C254.26 515.017 253.335 514.822 252.492 514.425C251.426 513.936 250.522 513.151 249.889 512.164C249.256 511.176 248.921 510.028 248.922 508.855V483.625H296.092Z" fill="#3F3D56"/>
<path opacity="0.1" d="M296.092 483.625V508.115C296.092 509.275 295.764 510.411 295.144 511.392C294.525 512.373 293.64 513.157 292.592 513.655C291.812 514.033 290.959 514.238 290.092 514.255L255.192 514.995C254.26 515.017 253.335 514.822 252.492 514.425C251.426 513.936 250.522 513.151 249.889 512.164C249.256 511.176 248.921 510.028 248.922 508.855V483.625H296.092Z" fill="black"/>
<path d="M298.092 483.625V508.115C298.092 509.275 297.764 510.411 297.144 511.392C296.525 512.373 295.64 513.157 294.592 513.655C293.812 514.033 292.959 514.238 292.092 514.255L257.192 514.995C256.26 515.017 255.335 514.822 254.492 514.425C253.426 513.936 252.522 513.151 251.889 512.164C251.256 511.176 250.921 510.028 250.922 508.855V483.625H298.092Z" fill="#3F3D56"/>
<path d="M728.076 483.615H680.906V515.115H728.076V483.615Z" fill="#3F3D56"/>
<path opacity="0.1" d="M728.076 483.615H680.906V515.115H728.076V483.615Z" fill="black"/>
<path d="M726.076 483.615H678.906V515.115H726.076V483.615Z" fill="#3F3D56"/>
<path opacity="0.1" d="M298.076 483.615V488.585L250.906 489.845V483.615H298.076Z" fill="black"/>
<path d="M381.336 312.325V480.525C381.324 481.552 380.917 482.534 380.201 483.27C379.484 484.005 378.512 484.437 377.486 484.475L185.836 489.575H185.786C184.742 489.562 183.745 489.142 183.007 488.404C182.269 487.666 181.849 486.669 181.836 485.625V312.325C181.849 311.281 182.269 310.284 183.007 309.546C183.745 308.808 184.742 308.388 185.786 308.375H377.386C378.43 308.388 379.427 308.808 380.165 309.546C380.903 310.284 381.323 311.281 381.336 312.325Z" fill="#65617D"/>
<path opacity="0.1" d="M185.836 308.375V489.575H185.786C184.742 489.562 183.745 489.142 183.007 488.404C182.269 487.666 181.849 486.669 181.836 485.625V312.325C181.849 311.281 182.269 310.284 183.007 309.546C183.745 308.808 184.742 308.388 185.786 308.375H185.836Z" fill="black"/>
<path d="M195 319H372.5V467.25L195 471.25V319Z" fill="#39374D"/>
<path opacity="0.1" d="M726.076 483.615V490.025L678.906 488.765V483.615H726.076Z" fill="black"/>
<path d="M788.337 312.325V485.625C788.324 486.677 787.896 487.682 787.148 488.421C786.399 489.161 785.389 489.575 784.337 489.575L592.647 484.475C591.621 484.437 590.649 484.005 589.932 483.27C589.215 482.534 588.809 481.552 588.797 480.525V312.325C588.81 311.281 589.23 310.284 589.968 309.546C590.706 308.808 591.703 308.388 592.747 308.375H784.347C785.397 308.378 786.405 308.793 787.151 309.532C787.898 310.271 788.324 311.275 788.337 312.325Z" fill="#65617D"/>
<path opacity="0.1" d="M788.336 312.325V485.625C788.323 486.677 787.896 487.682 787.147 488.421C786.398 489.161 785.388 489.575 784.336 489.575V308.375C785.388 308.375 786.398 308.789 787.147 309.529C787.896 310.268 788.323 311.273 788.336 312.325Z" fill="black"/>
<path d="M775.578 319.115H598.078V467.365L775.578 471.365V319.115Z" fill="#39374D"/>
<path d="M583.836 312.325V480.525C583.824 481.552 583.417 482.534 582.701 483.27C581.984 484.005 581.012 484.437 579.986 484.475L388.336 489.575C387.284 489.575 386.274 489.161 385.525 488.421C384.776 487.682 384.349 486.677 384.336 485.625V312.325C384.349 311.281 384.769 310.284 385.507 309.546C386.245 308.808 387.242 308.388 388.286 308.375H579.886C580.93 308.388 581.927 308.808 582.665 309.546C583.403 310.284 583.823 311.281 583.836 312.325Z" fill="#65617D"/>
<path d="M397.078 319.115H574.578V467.365L397.078 471.365V319.115Z" fill="#4267B2"/>
<path opacity="0.1" d="M863.078 533.615V546.615L711.158 548.015L709.538 548.045L651.798 548.575L650.418 548.595L632.868 548.745H632.348L525.368 549.735L349.758 551.365H349.608L304.958 551.785L304.478 551.795L106.078 553.615V538.615L308.588 537.285H309.068L350.058 537.005H350.248L633.328 535.135H633.618L633.788 535.125H634.258L639.048 535.095H640.508L714.998 534.595L719.398 534.575L720.378 534.565L863.078 533.615Z" fill="black"/>
<path d="M487.252 349.445C515.601 349.445 538.582 326.464 538.582 298.115C538.582 269.766 515.601 246.785 487.252 246.785C458.903 246.785 435.922 269.766 435.922 298.115C435.922 326.464 458.903 349.445 487.252 349.445Z" fill="#FBBEBE"/>
<path d="M538.593 377.125C538.593 377.125 439.093 389.125 448.593 377.125C452.033 372.785 452.983 359.925 452.793 345.275C452.733 340.825 452.573 336.215 452.343 331.625C451.243 309.625 448.593 288.125 448.593 288.125C448.593 288.125 535.593 247.125 525.593 279.625C521.593 292.755 522.903 311.195 525.943 328.505C526.833 333.555 527.863 338.505 528.943 343.205C531.578 354.669 534.799 365.99 538.593 377.125Z" fill="#FBBEBE"/>
<path d="M506.122 373.055C517.632 370.925 529.822 367.055 540.652 371.515C543.502 372.685 546.123 374.395 549.043 375.375C551.963 376.355 555.162 376.595 558.202 377.285C568.882 379.705 577.543 387.835 583.103 397.285C588.663 406.735 591.543 417.425 594.363 428.005L601.262 453.835C607.262 476.285 613.262 498.925 614.652 522.135C531.119 526.916 447.395 527.394 363.812 523.565C369.253 513.225 374.813 502.255 374.353 490.565C373.893 478.875 367.162 467.345 369.592 455.825C371.142 448.485 376.162 442.435 379.232 435.605C387.982 416.085 381.172 389.815 396.552 374.955C403.472 368.275 413.552 365.745 423.182 366.065C435.462 366.475 448.033 370.305 460.183 372.175C475.743 374.535 490.442 375.935 506.122 373.055Z" fill="#FF6584"/>
<path opacity="0.1" d="M637.017 484.225L636.917 485.655V485.755L636.747 488.055L635.417 506.565L633.807 528.865L633.347 535.145L632.347 548.585V548.755L525.347 549.755L349.757 551.655V552.495H349.617V551.375L350.067 537.015L350.927 508.955L351.667 485.165L351.737 482.795C351.781 481.364 352.116 479.958 352.721 478.661C353.327 477.365 354.19 476.205 355.259 475.253C356.328 474.301 357.58 473.577 358.938 473.126C360.295 472.674 361.731 472.503 363.157 472.625C367.877 473.025 374.007 473.515 381.337 474.035L384.337 474.255C426.667 477.195 504.897 480.995 583.837 476.255C585.497 476.165 587.167 476.065 588.837 475.945C601.077 475.175 613.307 474.185 625.417 472.945C626.948 472.785 628.496 472.962 629.951 473.464C631.406 473.966 632.733 474.782 633.839 475.852C634.945 476.923 635.802 478.223 636.351 479.661C636.901 481.099 637.128 482.64 637.017 484.175V484.225Z" fill="black"/>
<path d="M349.727 552.495V551.655L525.347 549.745L632.347 548.745H632.647V548.575L633.647 535.135L634.077 529.135L635.717 506.525L637.007 488.625V488.185C637.066 487.36 637.029 486.531 636.897 485.715C636.902 485.682 636.902 485.648 636.897 485.615C636.622 483.927 635.935 482.333 634.897 480.975C633.795 479.563 632.353 478.455 630.705 477.755C629.056 477.055 627.257 476.787 625.477 476.975C613.367 478.215 601.137 479.205 588.897 479.975C587.227 480.095 585.557 480.195 583.897 480.285C504.957 484.975 426.727 481.175 384.397 478.285L381.397 478.065C374.067 477.545 367.937 477.065 363.217 476.655C360.62 476.436 358.034 477.186 355.959 478.762C353.883 480.337 352.464 482.625 351.977 485.185C351.876 485.726 351.815 486.275 351.797 486.825L351.117 508.985L350.187 537.055L349.747 551.415V552.535L349.727 552.495Z" fill="#3F3D56"/>
<path opacity="0.1" d="M637.318 491.235L636.088 506.565L634.258 529.415L633.798 535.135L632.798 547.945L632.738 548.585V548.755L632.588 550.235L632.698 548.755H632.408L525.408 549.755L349.758 551.655V551.375L350.248 537.015L351.248 508.955L351.888 490.305C351.919 489.244 352.216 488.208 352.75 487.291C353.285 486.374 354.04 485.605 354.948 485.055C356.08 484.361 357.404 484.046 358.728 484.155C360.828 484.325 363.408 484.525 366.418 484.745C371.308 485.105 377.338 485.525 384.358 485.965C397.358 486.785 413.668 487.665 432.358 488.385C484.358 490.385 554.558 491.055 621.238 485.215C624.238 484.955 627.338 484.665 630.368 484.375C631.567 484.255 632.776 484.485 633.848 485.035C634.152 485.186 634.44 485.367 634.708 485.575C635.578 486.206 636.268 487.054 636.708 488.035C636.81 488.23 636.894 488.434 636.958 488.645C637.258 489.473 637.381 490.356 637.318 491.235Z" fill="black"/>
<path opacity="0.1" d="M298.092 504.925V508.115C298.092 509.275 297.764 510.411 297.144 511.392C296.525 512.373 295.64 513.157 294.592 513.655L254.492 514.425C253.426 513.936 252.522 513.151 251.889 512.164C251.256 511.176 250.921 510.028 250.922 508.855V505.855L298.092 504.925Z" fill="black"/>
<path d="M298.578 515.535L246.328 516.535V507.865L298.578 506.865V515.535Z" fill="#3F3D56"/>
<path opacity="0.1" d="M298.578 515.535L246.328 516.535V507.865L298.578 506.865V515.535Z" fill="black"/>
<path d="M300.578 515.535L248.328 516.535V507.865L300.578 506.865V515.535Z" fill="#3F3D56"/>
<path opacity="0.1" d="M679.211 506.925V510.115C679.21 511.275 679.539 512.411 680.159 513.392C680.778 514.373 681.663 515.157 682.711 515.655L722.811 516.425C723.877 515.936 724.781 515.151 725.413 514.164C726.046 513.176 726.382 512.028 726.381 510.855V507.855L679.211 506.925Z" fill="black"/>
<path opacity="0.1" d="M678.711 517.535L730.961 518.535V509.865L678.711 508.865V517.535Z" fill="black"/>
<path d="M676.711 517.535L728.961 518.535V509.865L676.711 508.865V517.535Z" fill="#3F3D56"/>
<path d="M454.777 313.845C454.857 320.845 451.617 327.445 448.867 333.915C438.855 357.483 434.519 383.074 436.207 408.625C436.937 419.625 438.787 430.625 436.937 441.525C435.087 452.425 428.507 463.295 417.938 466.425C435.468 476.875 459.197 475.775 475.697 463.765C484.487 457.365 491.037 448.435 497.447 439.655C496.686 455.427 492.12 470.781 484.137 484.405C498.566 483.127 512.565 478.834 525.228 471.802C537.891 464.77 548.936 455.157 557.647 443.585C561.957 437.775 565.707 431.395 567.367 424.355C570.457 411.355 566.148 397.845 562.858 384.855C560.108 373.996 558.047 362.974 556.687 351.855C556.257 348.295 555.908 344.635 556.788 341.155C557.788 337.085 560.458 333.645 562.428 329.935C568.028 319.395 568.158 306.635 565.288 295.055C562.418 283.475 556.798 272.795 551.228 262.245C546.768 253.785 541.927 244.935 533.767 239.965C528.667 236.865 522.767 235.575 516.887 234.325L491.517 228.895C485.967 227.705 480.257 226.515 474.647 227.385C465.177 228.865 458.507 235.705 452.647 242.725C448.057 248.185 436.838 258.435 436.048 265.585C435.328 272.175 441.147 283.215 442.137 290.165C443.437 299.165 444.357 296.165 449.437 301.685C452.647 305.105 454.717 309.055 454.777 313.845Z" fill="#3F3D56"/>
<path d="M729.97 395.739C729.97 389.912 722.67 384.389 711.483 380.964C714.065 369.564 712.917 360.487 707.861 357.582C706.636 356.896 705.249 356.551 703.845 356.582V360.582C704.555 360.56 705.259 360.72 705.889 361.048C708.328 362.448 709.389 367.772 708.561 374.622C708.361 376.307 708.041 378.083 707.647 379.894C703.899 378.991 700.095 378.338 696.261 377.94C693.977 374.789 691.485 371.794 688.802 368.975C694.647 363.542 700.134 360.565 703.864 360.565V356.56C698.933 356.56 692.478 360.074 685.951 366.171C679.424 360.11 672.969 356.632 668.038 356.632V360.632C671.75 360.632 677.254 363.591 683.1 368.988C680.43 371.797 677.956 374.787 675.695 377.935C671.854 378.329 668.045 378.988 664.295 379.907C663.883 378.114 663.578 376.375 663.363 374.707C662.52 367.857 663.563 362.532 665.981 361.115C666.614 360.777 667.326 360.616 668.043 360.649V356.649C666.627 356.618 665.229 356.963 663.991 357.649C658.952 360.549 657.823 369.609 660.423 380.977C649.27 384.42 642.008 389.924 642.008 395.734C642.008 401.562 649.308 407.084 660.495 410.509C657.913 421.909 659.061 430.986 664.117 433.891C665.348 434.579 666.741 434.925 668.151 434.891C673.082 434.891 679.537 431.377 686.064 425.28C692.591 431.341 699.046 434.819 703.977 434.819C705.392 434.85 706.79 434.505 708.029 433.819C713.068 430.919 714.197 421.859 711.597 410.491C722.708 407.071 729.97 401.548 729.97 395.739ZM706.624 383.779C705.961 386.092 705.136 388.479 704.203 390.862C703.468 389.428 702.697 387.993 701.854 386.562C701.029 385.128 700.154 383.729 699.272 382.362C701.819 382.739 704.275 383.205 706.624 383.779ZM698.412 402.879C697.012 405.3 695.579 407.595 694.091 409.729C691.419 409.962 688.712 410.088 685.991 410.088C683.283 410.088 680.576 409.962 677.922 409.747C676.434 407.614 674.987 405.342 673.583 402.933C672.22 400.584 670.977 398.206 669.853 395.797C670.965 393.397 672.22 390.992 673.565 388.643C674.965 386.222 676.398 383.927 677.886 381.793C680.558 381.56 683.265 381.434 685.986 381.434C688.694 381.434 691.401 381.56 694.055 381.775C695.543 383.908 696.989 386.18 698.394 388.589C699.756 390.938 701 393.316 702.124 395.725C700.994 398.124 699.757 400.526 698.412 402.875V402.879ZM704.204 400.548C705.172 402.948 705.997 405.353 706.678 407.684C704.329 408.258 701.855 408.742 699.291 409.118C700.17 407.737 701.048 406.318 701.873 404.868C702.702 403.431 703.469 401.979 704.202 400.544L704.204 400.548ZM686.022 419.676C684.263 417.85 682.599 415.935 681.037 413.938C682.651 414.01 684.3 414.064 685.968 414.064C687.653 414.064 689.321 414.028 690.953 413.938C689.414 415.938 687.768 417.854 686.022 419.676ZM672.682 409.115C670.136 408.738 667.682 408.272 665.33 407.698C665.993 405.385 666.818 402.998 667.751 400.615C668.486 402.049 669.257 403.484 670.1 404.915C670.943 406.346 671.802 407.752 672.682 409.115ZM685.932 371.801C687.691 373.627 689.355 375.542 690.917 377.539C689.303 377.467 687.654 377.413 685.986 377.413C684.3 377.413 682.633 377.449 681.001 377.539C682.54 375.539 684.186 373.623 685.932 371.801ZM672.664 382.36C671.785 383.741 670.907 385.16 670.082 386.61C669.257 388.044 668.482 389.479 667.751 390.91C666.783 388.51 665.958 386.105 665.277 383.774C667.625 383.223 670.102 382.739 672.664 382.36ZM656.437 404.809C650.089 402.101 645.983 398.551 645.983 395.736C645.983 392.921 650.089 389.353 656.437 386.663C657.979 386 659.665 385.408 661.404 384.852C662.501 388.579 663.848 392.227 665.438 395.772C663.865 399.299 662.535 402.93 661.457 406.638C659.682 406.085 657.996 405.475 656.436 404.812L656.437 404.809ZM666.084 430.432C663.645 429.032 662.584 423.708 663.412 416.858C663.612 415.172 663.932 413.397 664.326 411.586C668.074 412.489 671.877 413.142 675.712 413.54C677.996 416.691 680.488 419.686 683.171 422.505C677.326 427.938 671.839 430.915 668.109 430.915C667.404 430.924 666.708 430.759 666.083 430.435L666.084 430.432ZM708.616 416.769C709.459 423.619 708.416 428.944 705.998 430.361C705.365 430.699 704.653 430.86 703.936 430.827C700.224 430.827 694.72 427.868 688.874 422.471C691.544 419.662 694.018 416.672 696.279 413.524C700.12 413.13 703.929 412.471 707.679 411.552C708.083 413.274 708.395 415.017 708.615 416.772L708.616 416.769ZM715.516 404.809C713.974 405.472 712.288 406.064 710.549 406.62C709.452 402.893 708.104 399.245 706.515 395.7C708.087 392.173 709.417 388.542 710.496 384.834C712.271 385.39 713.957 385.999 715.535 386.663C721.883 389.371 725.989 392.921 725.989 395.736C725.972 398.554 721.866 402.122 715.518 404.812L715.516 404.809Z" fill="#61DAFB"/>
<path d="M685.967 403.932C690.493 403.932 694.161 400.263 694.161 395.738C694.161 391.213 690.493 387.544 685.967 387.544C681.442 387.544 677.773 391.213 677.773 395.738C677.773 400.263 681.442 403.932 685.967 403.932Z" fill="#61DAFB"/>
<rect x="239.258" y="352.757" width="86" height="86" rx="7.16667" transform="rotate(-1 239.258 352.757)" fill="#020303"/>
<path d="M292.933 373.348C292.91 372.007 292.601 371.081 292.008 370.609C291.414 370.138 290.419 369.901 289.022 369.925L288.399 369.936L288.366 368.027L289.67 368.114L295.279 368.179L301.108 367.914L302.239 367.785L302.272 369.694L301.649 369.705C300.177 369.73 299.162 369.989 298.604 370.471C298.046 370.954 297.779 371.886 297.803 373.272L298.554 416.257C298.576 417.569 298.885 418.465 299.478 418.946C300.072 419.426 301.086 419.654 302.521 419.629L303.144 419.618L303.177 421.527L296.321 421.374L291.567 421.62L289.304 421.769L289.271 419.86L289.875 419.85C291.309 419.825 292.305 419.571 292.863 419.089C293.421 418.606 293.688 417.692 293.665 416.347L293.306 395.788L272.77 396.147L273.129 416.697C273.153 418.048 273.47 418.951 274.083 419.407C274.695 419.863 275.699 420.082 277.096 420.064L277.719 420.053L277.752 421.962L270.443 421.816C269.461 421.834 268.179 421.906 266.595 422.02C265.011 422.134 264.068 422.2 263.766 422.206L263.733 420.297L264.393 420.286C265.341 420.3 266.282 420.129 267.16 419.783C267.91 419.467 268.27 418.468 268.241 416.786L267.49 373.801C267.467 372.45 267.158 371.536 266.564 371.058C265.971 370.577 264.957 370.345 263.522 370.37L262.861 370.382L262.828 368.473L269.854 368.623L276.814 368.229L276.848 370.138L276.225 370.148C274.809 370.173 273.785 370.432 273.208 370.91C272.631 371.388 272.355 372.33 272.379 373.707L272.729 393.802L293.284 393.443L292.933 373.348Z" fill="#FBFBFB"/>
</g>
<defs>
<clipPath id="clip0_9226_317894">
<rect width="1041.28" height="554.141" fill="white"/>
</clipPath>
</defs>
</svg>
