<svg width="1129" height="663" viewBox="0 0 1129 663" fill="none" xmlns="http://www.w3.org/2000/svg">
<g clip-path="url(#clip0_9226_318049)">
<path d="M321 642C498.283 642 642 498.283 642 321C642 143.717 498.283 0 321 0C143.717 0 0 143.717 0 321C0 498.283 143.717 642 321 642Z" fill="#F2F2F2"/>
<path d="M559 663C842.874 663 1073 650.688 1073 635.5C1073 620.312 842.874 608 559 608C275.126 608 45 620.312 45 635.5C45 650.688 275.126 663 559 663Z" fill="#3F3D56"/>
<path opacity="0.2" d="M558 649C812.051 649 1018 639.15 1018 627C1018 614.85 812.051 605 558 605C303.949 605 98 614.85 98 627C98 639.15 303.949 649 558 649Z" fill="black"/>
<path d="M971 152.5H131V202.5H971V152.5Z" fill="#3F3D56"/>
<path d="M131 608.83C131 611.676 131.561 614.494 132.65 617.123C133.739 619.752 135.335 622.141 137.347 624.153C139.359 626.165 141.748 627.761 144.377 628.85C147.006 629.939 149.824 630.5 152.67 630.5H949.33C952.176 630.5 954.994 629.939 957.623 628.85C960.252 627.761 962.641 626.165 964.653 624.153C966.665 622.141 968.261 619.752 969.35 617.123C970.439 614.494 971 611.676 971 608.83V177.5H131V608.83Z" fill="#3F3D56"/>
<path d="M949.33 117.5H152.67C149.824 117.5 147.006 118.061 144.377 119.15C141.748 120.239 139.359 121.835 137.347 123.847C135.335 125.859 133.739 128.248 132.65 130.877C131.561 133.506 131 136.324 131 139.17V177.5H971V139.17C971 136.324 970.439 133.506 969.35 130.877C968.261 128.248 966.665 125.859 964.653 123.847C962.641 121.835 960.252 120.239 957.623 119.15C954.994 118.061 952.176 117.5 949.33 117.5Z" fill="#3F3D56"/>
<path opacity="0.2" d="M949.33 117.5H152.67C149.824 117.5 147.006 118.061 144.377 119.15C141.748 120.239 139.359 121.835 137.347 123.847C135.335 125.859 133.739 128.248 132.65 130.877C131.561 133.506 131 136.324 131 139.17V177.5H971V139.17C971 136.324 970.439 133.506 969.35 130.877C968.261 128.248 966.665 125.859 964.653 123.847C962.641 121.835 960.252 120.239 957.623 119.15C954.994 118.061 952.176 117.5 949.33 117.5Z" fill="black"/>
<path d="M181 160.5C188.18 160.5 194 154.68 194 147.5C194 140.32 188.18 134.5 181 134.5C173.82 134.5 168 140.32 168 147.5C168 154.68 173.82 160.5 181 160.5Z" fill="#3F3D56"/>
<path d="M217 160.5C224.18 160.5 230 154.68 230 147.5C230 140.32 224.18 134.5 217 134.5C209.82 134.5 204 140.32 204 147.5C204 154.68 209.82 160.5 217 160.5Z" fill="#3F3D56"/>
<path d="M253 160.5C260.18 160.5 266 154.68 266 147.5C266 140.32 260.18 134.5 253 134.5C245.82 134.5 240 140.32 240 147.5C240 154.68 245.82 160.5 253 160.5Z" fill="#3F3D56"/>
<path d="M499.665 213H173.335C170.389 213 168 215.389 168 218.335V593.665C168 596.611 170.389 599 173.335 599H499.665C502.611 599 505 596.611 505 593.665V218.335C505 215.389 502.611 213 499.665 213Z" fill="#606060"/>
<path d="M881.524 272.5H608.476C605.452 272.5 603 274.952 603 277.976V289.024C603 292.048 605.452 294.5 608.476 294.5H881.524C884.548 294.5 887 292.048 887 289.024V277.976C887 274.952 884.548 272.5 881.524 272.5Z" fill="#2E8555"/>
<path d="M947.524 352.5H542.476C539.452 352.5 537 354.952 537 357.976V362.024C537 365.048 539.452 367.5 542.476 367.5H947.524C950.548 367.5 953 365.048 953 362.024V357.976C953 354.952 950.548 352.5 947.524 352.5Z" fill="#2E8555"/>
<path d="M947.524 396.5H542.476C539.452 396.5 537 398.952 537 401.976V406.024C537 409.048 539.452 411.5 542.476 411.5H947.524C950.548 411.5 953 409.048 953 406.024V401.976C953 398.952 950.548 396.5 947.524 396.5Z" fill="#2E8555"/>
<path d="M947.524 440.5H542.476C539.452 440.5 537 442.952 537 445.976V450.024C537 453.048 539.452 455.5 542.476 455.5H947.524C950.548 455.5 953 453.048 953 450.024V445.976C953 442.952 950.548 440.5 947.524 440.5Z" fill="#2E8555"/>
<path d="M947.524 484.5H542.476C539.452 484.5 537 486.952 537 489.976V494.024C537 497.048 539.452 499.5 542.476 499.5H947.524C950.548 499.5 953 497.048 953 494.024V489.976C953 486.952 950.548 484.5 947.524 484.5Z" fill="#2E8555"/>
<path d="M945.972 552.5H872.028C868.146 552.5 865 555.646 865 559.528V571.472C865 575.354 868.146 578.5 872.028 578.5H945.972C949.854 578.5 953 575.354 953 571.472V559.528C953 555.646 949.854 552.5 945.972 552.5Z" fill="#3ECC5F"/>
<path d="M1053.11 506.116C1055.77 501.472 1057.14 496.202 1057.09 490.85C1057.09 477.053 1048.54 465.869 1038.01 465.869C1027.47 465.869 1018.92 477.053 1018.92 490.85C1018.87 496.202 1020.25 501.472 1022.91 506.116C1020.29 510.78 1018.92 516.036 1018.92 521.382C1018.92 526.728 1020.29 531.984 1022.91 536.648C1020.29 541.312 1018.92 546.569 1018.92 551.914C1018.92 557.26 1020.29 562.516 1022.91 567.18C1020.29 571.844 1018.92 577.101 1018.92 582.446C1018.92 587.792 1020.29 593.048 1022.91 597.712C1020.25 602.356 1018.87 607.626 1018.92 612.978C1018.92 626.775 1027.47 637.959 1038.01 637.959C1048.54 637.959 1057.09 626.775 1057.09 612.978C1057.14 607.626 1055.77 602.356 1053.11 597.712C1055.72 593.048 1057.09 587.792 1057.09 582.446C1057.09 577.101 1055.72 571.844 1053.11 567.18C1055.72 562.516 1057.09 557.26 1057.09 551.914C1057.09 546.569 1055.72 541.312 1053.11 536.648C1055.72 531.984 1057.09 526.728 1057.09 521.382C1057.09 516.036 1055.72 510.78 1053.11 506.116Z" fill="#3F3D56"/>
<path d="M1038 485.299C1048.54 485.299 1057.09 474.114 1057.09 460.318C1057.09 446.521 1048.54 435.337 1038 435.337C1027.47 435.337 1018.92 446.521 1018.92 460.318C1018.92 474.114 1027.47 485.299 1038 485.299Z" fill="#3F3D56"/>
<path d="M1038 454.767C1048.54 454.767 1057.09 443.582 1057.09 429.786C1057.09 415.989 1048.54 404.805 1038 404.805C1027.47 404.805 1018.92 415.989 1018.92 429.786C1018.92 443.582 1027.47 454.767 1038 454.767Z" fill="#3F3D56"/>
<path fill-rule="evenodd" clip-rule="evenodd" d="M1109.44 220.845C1112.04 217.526 1114.42 214.031 1116.54 210.384L1066.4 202.149L1120.63 202.552C1125.83 191.234 1128.67 178.973 1128.97 166.519C1129.27 154.066 1127.03 141.682 1122.38 130.126L1049.62 167.868L1116.72 118.547C1110.43 107.684 1101.98 98.2326 1091.88 90.7803C1081.78 83.3281 1070.26 78.0351 1058.02 75.231C1045.79 72.4269 1033.11 72.1719 1020.78 74.4817C1008.44 76.7916 996.712 81.6168 986.322 88.6569C975.933 95.697 967.104 104.801 960.386 115.402C953.668 126.003 949.205 137.874 947.275 150.275C945.345 162.676 945.989 175.341 949.168 187.482C952.346 199.624 957.99 210.98 965.749 220.845C961.685 226.011 958.19 231.599 955.324 237.514L1020.41 271.329L951.01 248.037C946.138 262.442 944.933 277.835 947.507 292.822C950.08 307.81 956.35 321.919 965.749 333.874C955.144 347.356 948.547 363.551 946.712 380.606C944.877 397.662 947.879 414.889 955.373 430.319C962.868 445.749 974.553 458.759 989.092 467.86C1003.63 476.962 1020.44 481.789 1037.59 481.789C1054.75 481.789 1071.55 476.962 1086.09 467.86C1100.63 458.759 1112.32 445.749 1119.81 430.319C1127.31 414.889 1130.31 397.662 1128.47 380.606C1126.64 363.551 1120.04 347.356 1109.44 333.874C1122.11 317.761 1129 297.858 1129 277.359C1129 256.861 1122.11 236.957 1109.44 220.845Z" fill="#3ECC5F"/>
<path opacity="0.1" d="M946.188 277.359C946.156 297.863 953.049 317.777 965.749 333.873C955.144 347.356 948.547 363.551 946.712 380.606C944.877 397.662 947.879 414.889 955.373 430.319C962.868 445.749 974.553 458.758 989.092 467.86C1003.63 476.962 1020.44 481.789 1037.59 481.789C1054.75 481.789 1071.55 476.962 1086.09 467.86C1100.63 458.758 1112.32 445.749 1119.81 430.319C1127.31 414.889 1130.31 397.662 1128.47 380.606C1126.64 363.551 1120.04 347.356 1109.44 333.873C1121.69 318.321 946.188 267.1 946.188 277.359Z" fill="black"/>
<rect x="227" y="296" width="220" height="220" rx="18.3333" fill="#020303"/>
<path d="M363.37 351.063C363.37 347.633 362.621 345.249 361.124 344.017C359.627 342.784 357.092 342.133 353.518 342.133H351.925V337.25L355.257 337.529L369.6 337.948L384.522 337.529L387.419 337.25V342.133H385.826C382.059 342.133 379.451 342.75 378.002 343.959C376.554 345.168 375.829 347.54 375.829 351.086V461.065C375.829 464.421 376.578 466.727 378.075 467.983C379.572 469.239 382.155 469.867 385.826 469.867H387.419V474.75L369.889 474.052L357.72 474.471L351.925 474.75V469.867H353.47C357.14 469.867 359.7 469.262 361.149 468.053C362.597 466.844 363.322 464.518 363.322 461.077V408.476H310.78V461.053C310.78 464.511 311.553 466.836 313.098 468.03C314.644 469.223 317.203 469.828 320.777 469.843H322.37V474.727L303.681 474.029C301.17 474.029 297.886 474.157 293.83 474.378C289.773 474.599 287.359 474.727 286.586 474.727V469.843H288.276C290.7 469.922 293.115 469.526 295.375 468.681C297.307 467.906 298.273 465.367 298.273 461.065V351.086C298.273 347.629 297.524 345.276 296.027 344.028C294.53 342.773 291.946 342.133 288.276 342.133H286.586V337.25L304.55 337.948L322.37 337.25V342.133H320.777C317.155 342.133 314.523 342.75 313.026 343.947C311.529 345.145 310.78 347.54 310.78 351.063V402.477H363.37V351.063Z" fill="#FBFBFB"/>
</g>
<defs>
<clipPath id="clip0_9226_318049">
<rect width="1129" height="663" fill="white"/>
</clipPath>
</defs>
</svg>
